<?xml version="1.0" encoding="UTF-8"?>
<svg id="Capa_1" xmlns="http://www.w3.org/2000/svg" xmlns:xlink="http://www.w3.org/1999/xlink" viewBox="0 0 458 119">
  <defs>
    <style>
      .cls-1 {
        fill: #fff;
      }

      .cls-2 {
        fill: #ffdc7f;
      }

      .cls-3 {
        fill: none;
      }

      .cls-4 {
        clip-path: url(#clippath-1);
      }

      .cls-5 {
        fill: #227b94;
      }

      .cls-6 {
        fill: #78b7d0;
      }

      .cls-7 {
        clip-path: url(#clippath);
      }
    </style>
    <clipPath id="clippath">
      <rect class="cls-3" x="11.07" y="-220.43" width="176.87" height="176.87"/>
    </clipPath>
    <clipPath id="clippath-1">
      <path class="cls-3" d="M99.5-220.43c-48.84,0-88.43,39.59-88.43,88.43S50.66-43.57,99.5-43.57s88.43-39.59,88.43-88.43-39.59-88.43-88.43-88.43Z"/>
    </clipPath>
  </defs>
  <g>
    <g>
      <circle class="cls-5" cx="62.35" cy="59.5" r="55.87"/>
      <g>
        <path class="cls-1" d="M36.98,58c0,5.83,0,11.66,0,17.5,0,3.24,2.11,5.72,5.28,6.27.44.08.89.07,1.34.07,3.07,0,6.13,0,9.2,0,1.13,0,1.83.8,1.59,1.79-.15.62-.65,1.08-1.34,1.08-3.7-.01-7.41.1-11.1-.13-3.91-.24-7.36-3.85-7.77-7.75-.06-.57-.09-1.16-.09-1.73,0-11.52-.03-23.03,0-34.55.01-4.01,1.93-6.89,5.58-8.57,1.13-.52,2.35-.72,3.6-.72,10.51,0,21.01-.01,31.52,0,5.18,0,9.17,4.01,9.18,9.18.02,4.94,0,9.87,0,14.81,0,1.11-.75,1.79-1.73,1.59-.58-.12-1-.55-1.09-1.13-.04-.26-.04-.52-.04-.78,0-4.75,0-9.5,0-14.24,0-2.67-1.14-4.67-3.52-5.91-.93-.48-1.94-.62-2.99-.62-7.98,0-15.96,0-23.95,0-2.41,0-4.82,0-7.23,0-3.79,0-6.45,2.67-6.45,6.47,0,5.8,0,11.59,0,17.39Z"/>
        <path class="cls-1" d="M86.99,68.32c.3-.25.53-.45.76-.63.68-.54,1.53-.5,2.06.1.53.61.47,1.45-.17,2.05-.22.2-.45.39-.68.58-.21.18-.42.37-.67.58.08.09.16.19.25.27,1.22,1.08,1.94,2.44,2.01,4.06.07,1.66.11,3.33,0,4.99-.2,2.76-2.14,4.58-5.09,4.91,0,.32,0,.65,0,.98-.02.9-.62,1.54-1.44,1.54-.79,0-1.39-.62-1.44-1.49-.02-.33,0-.66,0-1.02h-16.52c0,.35,0,.7,0,1.05-.03.83-.61,1.44-1.4,1.46-.77.02-1.4-.58-1.45-1.41-.02-.35,0-.7,0-1.08-.41-.07-.78-.11-1.13-.2-2.28-.54-3.94-2.6-3.99-4.95-.03-1.44,0-2.88,0-4.32,0-1.8.69-3.3,2.03-4.5.07-.06.14-.13.2-.19.01-.01,0-.04.02-.11-.4-.34-.82-.7-1.24-1.06-.73-.63-.85-1.46-.31-2.12.54-.66,1.39-.69,2.14-.09.23.19.46.38.72.6.1-.2.19-.36.27-.52.66-1.42,1.31-2.85,1.99-4.26.87-1.82,2.37-2.83,4.35-2.86,4.05-.07,8.11-.08,12.17,0,2.14.04,3.62,1.21,4.49,3.17.66,1.48,1.37,2.94,2.09,4.49ZM74.29,82.35c3.61,0,7.21,0,10.82,0,1.58,0,2.57-.99,2.58-2.54,0-1.29,0-2.58,0-3.87,0-2.01-1.27-3.29-3.3-3.29-6.73,0-13.46,0-20.18,0-2.01,0-3.28,1.29-3.29,3.31,0,1.21,0,2.43,0,3.64,0,1.82.94,2.75,2.78,2.75,3.53,0,7.06,0,10.6,0ZM84.47,69.76c-.06-.15-.08-.24-.12-.32-.73-1.56-1.44-3.11-2.19-4.66-.39-.81-1.05-1.24-1.97-1.24-3.91,0-7.81,0-11.72,0-.98,0-1.67.46-2.07,1.35-.5,1.1-1,2.21-1.5,3.31-.23.5-.45,1-.71,1.56h20.26Z"/>
        <path class="cls-2" d="M59.03,48.5c-4.3,0-8.6,0-12.9,0-.96,0-1.59-.51-1.64-1.32-.05-.75.39-1.36,1.13-1.51.23-.05.48-.05.72-.05,8.47,0,16.93.01,25.4-.01,1.41,0,1.87.76,1.88,1.45.02.91-.68,1.45-1.87,1.45-4.24,0-8.49,0-12.73,0Z"/>
        <path class="cls-2" d="M51.58,56.57c1.87,0,3.73,0,5.6,0,.65,0,1.1.32,1.34.92.22.56.12,1.11-.33,1.48-.28.23-.69.42-1.05.42-3.73.03-7.47.03-11.2.01-.88,0-1.46-.61-1.46-1.44,0-.81.6-1.4,1.49-1.4,1.87-.01,3.73,0,5.6,0h0Z"/>
        <path class="cls-2" d="M48.36,70.38c-.77,0-1.53,0-2.3,0-.96-.01-1.58-.59-1.58-1.45,0-.83.61-1.42,1.53-1.43,1.59-.02,3.18-.02,4.76,0,.91.01,1.54.64,1.53,1.45,0,.81-.65,1.42-1.55,1.43-.8.01-1.61,0-2.41,0Z"/>
        <path class="cls-5" d="M74.29,82.35c-3.53,0-7.06,0-10.6,0-1.83,0-2.77-.93-2.78-2.75,0-1.21,0-2.43,0-3.64.01-2.02,1.28-3.31,3.29-3.31,6.73,0,13.46,0,20.18,0,2.02,0,3.29,1.28,3.3,3.29,0,1.29,0,2.58,0,3.87,0,1.55-1,2.54-2.58,2.54-3.61,0-7.21,0-10.82,0ZM74.31,78.92c.73,0,1.45.01,2.18,0,.85-.02,1.44-.59,1.46-1.38.02-.83-.55-1.45-1.42-1.46-1.47-.03-2.94-.02-4.42,0-.86.01-1.47.66-1.45,1.45.03.78.63,1.37,1.46,1.38.73.02,1.45,0,2.18,0ZM66,79.59c1.17,0,2.1-.91,2.11-2.08.01-1.15-.93-2.1-2.09-2.1-1.18,0-2.11.92-2.11,2.08,0,1.16.93,2.1,2.09,2.1ZM82.6,79.59c1.17,0,2.1-.91,2.11-2.08.01-1.15-.93-2.1-2.09-2.1-1.18,0-2.11.92-2.11,2.08,0,1.16.93,2.1,2.09,2.1Z"/>
        <path class="cls-5" d="M84.47,69.76h-20.26c.25-.56.48-1.06.71-1.56.5-1.1,1-2.21,1.5-3.31.4-.89,1.08-1.35,2.07-1.35,3.91,0,7.81,0,11.72,0,.92,0,1.58.43,1.97,1.24.74,1.55,1.46,3.11,2.19,4.66.04.08.06.17.12.32Z"/>
        <path class="cls-6" d="M74.31,78.92c-.73,0-1.45.01-2.18,0-.83-.02-1.44-.6-1.46-1.38-.03-.79.59-1.44,1.45-1.45,1.47-.02,2.94-.03,4.42,0,.88.01,1.44.63,1.42,1.46-.02.79-.61,1.36-1.46,1.38-.73.01-1.45,0-2.18,0Z"/>
        <path class="cls-6" d="M66,79.59c-1.17,0-2.1-.94-2.09-2.1,0-1.16.93-2.08,2.11-2.08,1.16,0,2.11.95,2.09,2.1-.01,1.17-.94,2.09-2.11,2.08Z"/>
        <path class="cls-6" d="M82.6,79.59c-1.17,0-2.1-.94-2.09-2.1,0-1.16.94-2.08,2.11-2.08,1.16,0,2.11.95,2.09,2.1-.01,1.17-.94,2.09-2.11,2.08Z"/>
      </g>
    </g>
    <g>
      <path class="cls-5" d="M148.02,77.8l-1.46-4.71-11.56-32.26c1.24.02,2.19.03,2.83.03l2.54-.03.84,2.93c.2.63.41,1.26.63,1.9l9.65,28.17,13.8-28.06c.31-.63.61-1.28.91-1.94.3-.66.74-1.66,1.31-2.99,1.3.02,2.24.03,2.82.03l2.68-.03c-1.7,3.07-3.86,7.21-6.5,12.41l-7.01,13.76c-2.04,3.97-3.8,7.58-5.28,10.81-1.28-.04-2.29-.05-3.03-.05s-1.79.02-3.17.05Z"/>
      <path class="cls-5" d="M196.62,73.49c-.22.99-.43,2.26-.65,3.79-1.73.43-3.24.73-4.51.88-1.27.15-2.54.23-3.81.23-2.26,0-4.28-.27-6.08-.81-1.8-.54-3.34-1.49-4.62-2.83-1.28-1.35-2.2-2.88-2.76-4.62-.56-1.73-.84-3.57-.84-5.5,0-2.69.51-5.19,1.54-7.49,1.03-2.3,2.58-4.11,4.65-5.43,2.07-1.32,4.69-1.98,7.87-1.98,1.64,0,3.21.24,4.71.72,1.5.48,2.74,1.21,3.74,2.18.99.98,1.76,2.18,2.3,3.62.54,1.44.81,3,.81,4.7,0,.65-.05,1.28-.16,1.9h-20.67c-.07.99-.11,1.75-.11,2.28,0,1.9.4,3.64,1.19,5.24.79,1.6,1.97,2.81,3.52,3.63,1.55.82,3.34,1.23,5.36,1.23,2.33,0,5.16-.58,8.51-1.73ZM178.37,60.6h16.14c-.02-1.14-.09-2.02-.22-2.65-.13-.63-.36-1.29-.7-1.96-.34-.68-.81-1.26-1.39-1.76-.59-.5-1.29-.88-2.11-1.14-.82-.26-1.71-.39-2.67-.39-1.03,0-2.01.14-2.94.43-.93.29-1.75.69-2.47,1.19-.71.51-1.32,1.1-1.81,1.77-.5.68-.87,1.33-1.11,1.96-.24.63-.48,1.48-.72,2.55Z"/>
      <path class="cls-5" d="M203.75,77.8l.68-11.78.62-16.06.16-9.13,2.47.03c.61,0,1.42,0,2.41-.03l-.59,9.41-.22,5.62c.43-.78.81-1.39,1.12-1.85.32-.46.72-.92,1.22-1.38s1.02-.85,1.56-1.18c.54-.32,1.15-.61,1.81-.85.67-.24,1.47-.45,2.41-.61.94-.16,1.92-.24,2.95-.24,1.53,0,3,.17,4.4.51,1.4.34,2.6.91,3.6,1.7,1,.79,1.69,1.74,2.06,2.84.37,1.1.56,2.22.56,3.36,0,.45,0,1.05-.03,1.79-.05,1.12-.13,2.43-.21,3.92l-.46,9.96c-.05,1.08-.09,2.41-.11,3.98-1.05-.04-1.85-.05-2.42-.05-.62,0-1.47.02-2.58.05.2-1.95.43-5.02.69-9.2.26-4.19.4-7.09.4-8.71,0-1.44-.26-2.64-.79-3.58-.52-.95-1.39-1.67-2.6-2.18s-2.56-.76-4.04-.76c-1.35,0-2.62.21-3.79.62-1.07.38-1.97.91-2.72,1.6-.75.69-1.35,1.52-1.8,2.52-.49,1.06-.83,2.14-1.03,3.22-.31,1.71-.52,4.09-.65,7.14-.07,1.82-.17,4.93-.3,9.34-1.01-.04-1.77-.05-2.28-.05-.47,0-1.31.02-2.52.05Z"/>
      <path class="cls-5" d="M237.47,77.8l.47-6.83.52-11.65.22-8.97,2.49.03,2.44-.03c-.2,2.82-.39,5.77-.55,8.84-.17,3.08-.3,6.44-.4,10.09-.1,3.65-.15,6.48-.15,8.51-1.14-.04-1.95-.05-2.44-.05-.45,0-1.32.02-2.6.05ZM238.72,44.45c.05-1.7.08-2.98.08-3.85.99.04,1.87.05,2.63.05.96,0,1.82-.02,2.6-.05-.04.56-.09,1.84-.16,3.85-.98-.02-1.81-.03-2.52-.03s-1.58,0-2.63.03Z"/>
      <path class="cls-5" d="M257.95,77.8l.54-8.29.73-17.17.24-7.94c-4.42.02-8.29.1-11.61.24.11-1.44.17-2.72.19-3.82,4.59.02,9.53.03,14.84.03l8.67-.03h4.6c-.13,1.6-.19,2.87-.19,3.82-2.8-.16-5.9-.24-9.29-.24h-2.22l-.57,11.99-.57,16.89v4.52l-2.6-.05c-.24,0-1.16.02-2.77.05Z"/>
      <path class="cls-5" d="M278.67,77.8c.65-10.42.97-18.74.97-24.95l-.03-2.49c.92.02,1.68.03,2.28.03.69,0,1.45,0,2.3-.03l-.22,4.5c.67-1.12,1.26-1.96,1.77-2.53s1.1-1.04,1.75-1.41c.65-.37,1.39-.66,2.21-.87.82-.21,1.67-.31,2.56-.31.76,0,1.51.09,2.25.27.02,1.19.08,2.53.19,4.01-1.12-.31-2.12-.46-3.01-.46-1.07,0-2.02.18-2.87.53-.85.35-1.61.88-2.29,1.6-.68.71-1.23,1.57-1.67,2.56-.36.79-.64,1.82-.83,3.09-.19,1.26-.34,3.57-.45,6.91-.07,2.44-.11,5.02-.11,7.75v1.81c-.98-.04-1.76-.05-2.36-.05-.54,0-1.36.02-2.47.05Z"/>
      <path class="cls-5" d="M299.88,54.72c.16-.79.33-1.97.51-3.52,2.17-.56,4.05-.94,5.65-1.15,1.6-.21,3.16-.31,4.67-.31,1.63,0,3.15.15,4.56.45,1.42.3,2.6.78,3.54,1.45.94.67,1.56,1.44,1.87,2.3.31.87.46,1.8.46,2.79,0,1.25-.09,3.34-.28,6.27-.19,2.93-.33,5.65-.43,8.14-.1,2.49-.15,4.71-.15,6.66-.98-.04-1.77-.05-2.39-.05-.58,0-1.4.02-2.47.05l.58-7.39.41-8.75c-.63.49-1.11.83-1.42,1.03-.32.2-.67.38-1.07.56-.4.17-.84.33-1.31.49-.48.15-1.41.42-2.79.8-1.38.38-2.36.67-2.94.87-1.25.4-2.23.79-2.95,1.19-.72.4-1.33.83-1.82,1.3-.49.47-.83.94-1.03,1.41-.24.58-.35,1.18-.35,1.81,0,.98.29,1.82.87,2.55.58.72,1.3,1.22,2.18,1.5.88.28,1.93.42,3.16.42.76,0,1.55-.05,2.38-.16.83-.11,1.94-.38,3.33-.82-.25.7-.54,1.77-.87,3.22-1.32.25-2.39.41-3.22.47-.83.06-1.62.09-2.36.09-2.47,0-4.41-.29-5.8-.87-1.39-.58-2.43-1.46-3.12-2.64-.69-1.18-1.03-2.47-1.03-3.86,0-.81.12-1.56.37-2.25.24-.69.57-1.31.99-1.87.42-.56,1.01-1.12,1.77-1.68.77-.56,1.57-1.02,2.41-1.38.84-.36,1.82-.72,2.94-1.07,1.12-.35,2.92-.83,5.39-1.42.79-.18,1.47-.37,2.03-.56.56-.19,1.06-.37,1.49-.56.43-.18.81-.39,1.14-.64.33-.24.62-.54.89-.89.27-.35.47-.71.6-1.07.13-.36.19-.72.19-1.08,0-.88-.29-1.64-.87-2.28-.58-.63-1.33-1.07-2.26-1.33-.93-.25-2.03-.38-3.29-.38-1.17,0-2.38.09-3.62.28-1.24.19-2.3.42-3.2.68-.89.26-2.01.65-3.35,1.18Z"/>
      <path class="cls-5" d="M327.57,77.8l.3-3.93c.05-.83.13-2.14.22-3.93l.65-16.5c.02-1.35.03-2.38.03-3.09.85.02,1.63.03,2.33.03.76,0,1.51,0,2.25-.03l-.24,5.04c.61-1.01,1.17-1.81,1.67-2.41.5-.6,1.15-1.15,1.96-1.65.81-.51,1.74-.9,2.78-1.18,1.04-.28,2.12-.42,3.24-.42.78,0,1.54.09,2.3.27.76.18,1.46.43,2.1.76.64.33,1.19.7,1.65,1.11.46.42.83.87,1.11,1.35.28.49.56,1.19.85,2.11,1.1-2.08,2.48-3.53,4.13-4.36,1.65-.83,3.5-1.25,5.54-1.25,1.3,0,2.56.21,3.78.62,1.22.42,2.19,1.01,2.91,1.79.72.78,1.21,1.58,1.45,2.42.24.84.37,1.68.37,2.53s-.06,2.17-.19,3.9-.27,4.37-.43,7.92c-.16,3.55-.25,6.51-.27,8.87-.96-.04-1.71-.05-2.25-.05-.58,0-1.44.02-2.58.05.2-2.44.37-5.09.51-7.96l.35-6.72c.09-1.63.14-3.02.14-4.2,0-1.05-.11-1.87-.33-2.46-.22-.59-.56-1.12-1.04-1.59-.48-.47-1.07-.83-1.77-1.08s-1.51-.37-2.41-.37c-.72,0-1.39.08-2,.24-.58.16-1.14.41-1.68.73-.6.34-1.13.77-1.6,1.28-.47.49-.87,1.04-1.19,1.66-.34.63-.62,1.39-.84,2.25-.27,1.09-.46,2.42-.57,3.99-.13,1.68-.22,3.89-.29,6.64l-.21,7.58c-1.05-.04-1.84-.05-2.36-.05-.49,0-1.31.02-2.47.05.18-2.24.32-4.54.43-6.91l.32-6.56c.09-2.02.14-3.75.14-5.17,0-.92-.09-1.7-.27-2.34-.18-.64-.52-1.23-1.02-1.76-.5-.53-1.1-.94-1.8-1.22-.7-.28-1.48-.42-2.33-.42-.9,0-1.76.16-2.57.47-.81.32-1.56.78-2.25,1.4-.69.61-1.26,1.37-1.73,2.26-.47.89-.84,2.07-1.1,3.52-.26,1.45-.47,3.99-.62,7.6-.15,3.61-.23,6.65-.23,9.13-1.16-.04-1.95-.05-2.39-.05-.47,0-1.29.02-2.47.05Z"/>
      <path class="cls-5" d="M375.35,77.8l.47-6.83.52-11.65.22-8.97,2.49.03,2.44-.03c-.2,2.82-.39,5.77-.55,8.84-.17,3.08-.3,6.44-.4,10.09-.1,3.65-.15,6.48-.15,8.51-1.14-.04-1.95-.05-2.44-.05-.45,0-1.32.02-2.6.05ZM376.59,44.45c.05-1.7.08-2.98.08-3.85.99.04,1.87.05,2.63.05.96,0,1.82-.02,2.6-.05-.04.56-.09,1.84-.16,3.85-.98-.02-1.81-.03-2.52-.03s-1.58,0-2.63.03Z"/>
      <path class="cls-5" d="M401.54,74.22c-.2.88-.42,2.06-.65,3.52-1.23.29-2.2.47-2.93.54-.72.07-1.41.11-2.06.11-1.61,0-2.9-.2-3.89-.61-.98-.41-1.74-1.06-2.26-1.95-.52-.89-.79-2.11-.79-3.64,0-.2,0-.55.03-1.06.02-.51.11-2.27.28-5.28l.66-12.14h-3.62c.07-.76.14-1.84.19-3.25h3.69c.09-1.01.18-2.74.27-5.17,1.69-.33,3.13-.63,4.3-.92-.13,2.67-.2,4.7-.21,6.09h7.53c-.09,1.14-.14,2.22-.16,3.25h-7.5l-.72,15.25-.03,1.16c0,1.32.15,2.31.45,2.97.3.66.74,1.13,1.34,1.42.59.29,1.22.43,1.87.43.45,0,.94-.04,1.46-.11.52-.07,1.44-.28,2.76-.62Z"/>
      <path class="cls-5" d="M427.98,73.49c-.22.99-.43,2.26-.65,3.79-1.73.43-3.24.73-4.51.88-1.27.15-2.54.23-3.81.23-2.26,0-4.28-.27-6.08-.81-1.8-.54-3.34-1.49-4.62-2.83-1.28-1.35-2.2-2.88-2.76-4.62-.56-1.73-.84-3.57-.84-5.5,0-2.69.51-5.19,1.54-7.49,1.03-2.3,2.58-4.11,4.65-5.43,2.07-1.32,4.69-1.98,7.87-1.98,1.64,0,3.21.24,4.71.72,1.5.48,2.74,1.21,3.74,2.18.99.98,1.76,2.18,2.3,3.62.54,1.44.81,3,.81,4.7,0,.65-.05,1.28-.16,1.9h-20.67c-.07.99-.11,1.75-.11,2.28,0,1.9.4,3.64,1.19,5.24.79,1.6,1.97,2.81,3.52,3.63,1.55.82,3.34,1.23,5.36,1.23,2.33,0,5.16-.58,8.51-1.73ZM409.72,60.6h16.14c-.02-1.14-.09-2.02-.22-2.65-.13-.63-.36-1.29-.7-1.96-.34-.68-.81-1.26-1.39-1.76-.59-.5-1.29-.88-2.11-1.14-.82-.26-1.71-.39-2.67-.39-1.03,0-2.01.14-2.94.43-.93.29-1.75.69-2.47,1.19-.71.51-1.32,1.1-1.81,1.77-.5.68-.87,1.33-1.11,1.96-.24.63-.48,1.48-.72,2.55Z"/>
      <path class="cls-5" d="M433.69,77.28l-.16-1.99c0-.22-.07-.91-.22-2.07,2.78,1.21,5.35,1.81,7.69,1.81,1.23,0,2.27-.16,3.12-.49.85-.32,1.49-.81,1.91-1.44.42-.64.64-1.3.64-1.98,0-.38-.06-.76-.18-1.13-.12-.38-.29-.74-.53-1.09-.23-.35-.58-.74-1.04-1.16-.46-.42-1.42-1.22-2.87-2.4-1.45-1.17-2.56-2.09-3.3-2.75-.75-.66-1.39-1.34-1.92-2.03-.53-.69-.93-1.39-1.18-2.1-.25-.7-.38-1.42-.38-2.14,0-1.16.37-2.28,1.1-3.36.73-1.08,1.79-1.89,3.17-2.42,1.38-.53,3-.8,4.86-.8,2.08,0,4.36.24,6.85.73.07,1.41.16,2.7.27,3.87-2.02-.83-4.02-1.25-5.99-1.25-1.07,0-2.05.14-2.97.42-.91.28-1.58.7-2,1.26-.42.56-.64,1.17-.64,1.84,0,.43.07.85.22,1.25.14.4.4.83.77,1.29.37.46.82.92,1.34,1.37.52.45,1.57,1.3,3.13,2.55,1.56,1.25,2.63,2.17,3.21,2.76.58.6,1.07,1.21,1.49,1.84.42.63.72,1.26.91,1.88s.28,1.26.28,1.91c0,1.26-.38,2.44-1.12,3.52-.75,1.08-1.86,1.92-3.35,2.52-1.48.6-3.14.89-4.98.89-.78,0-1.69-.05-2.74-.15-1.05-.1-1.94-.22-2.67-.35-.73-.14-1.64-.34-2.72-.61Z"/>
    </g>
  </g>
  <g id="Ilustración_237">
    <g class="cls-7">
      <g class="cls-4">
        <rect class="cls-2" x="-21.3" y="-252.8" width="241.6" height="241.6" transform="translate(79.33 32.07) rotate(-30)"/>
      </g>
    </g>
  </g>
</svg>