<?xml version="1.0" encoding="UTF-8"?>
<svg id="Capa_1" xmlns="http://www.w3.org/2000/svg" viewBox="0 0 458 119">
  <defs>
    <style>
      .cls-1 {
        fill: #fff;
      }

      .cls-2 {
        fill: #ffdc7f;
      }

      .cls-3 {
        fill: #227b94;
      }

      .cls-4 {
        fill: #78b7d0;
      }
    </style>
  </defs>
  <g>
    <circle class="cls-1" cx="63.51" cy="59.5" r="55.21"/>
    <path class="cls-3" d="M38.44,58.02c0,5.76,0,11.53,0,17.29,0,3.2,2.08,5.66,5.22,6.2.43.07.88.07,1.32.07,3.03,0,6.06,0,9.09,0,1.12,0,1.81.79,1.57,1.76-.15.61-.64,1.07-1.32,1.07-3.66-.01-7.32.1-10.97-.12-3.87-.24-7.27-3.81-7.68-7.66-.06-.57-.09-1.14-.09-1.71,0-11.38-.03-22.76,0-34.14.01-3.97,1.91-6.81,5.52-8.47,1.12-.52,2.33-.71,3.56-.71,10.38,0,20.76-.01,31.15,0,5.12,0,9.06,3.96,9.07,9.07.02,4.88,0,9.75,0,14.63,0,1.1-.74,1.77-1.71,1.57-.57-.12-.99-.55-1.08-1.12-.04-.25-.04-.52-.04-.77,0-4.69,0-9.38,0-14.08,0-2.64-1.13-4.61-3.48-5.84-.92-.48-1.92-.62-2.95-.61-7.89,0-15.78,0-23.66,0-2.38,0-4.77,0-7.15,0-3.74,0-6.37,2.64-6.37,6.39,0,5.73,0,11.45,0,17.18Z"/>
    <path class="cls-3" d="M87.85,68.22c.3-.25.52-.44.75-.62.67-.54,1.52-.5,2.04.1.53.6.46,1.43-.17,2.03-.21.2-.45.38-.67.58-.21.18-.42.36-.66.57.08.09.15.19.24.27,1.21,1.07,1.92,2.41,1.99,4.01.07,1.64.11,3.29,0,4.93-.2,2.73-2.11,4.53-5.03,4.85,0,.31,0,.64,0,.96-.02.89-.61,1.53-1.42,1.53-.78,0-1.37-.61-1.42-1.47-.02-.33,0-.65,0-1.01h-16.32c0,.35,0,.69,0,1.03-.03.82-.61,1.43-1.38,1.45-.76.02-1.38-.57-1.43-1.39-.02-.35,0-.7,0-1.07-.41-.07-.77-.11-1.12-.2-2.25-.53-3.9-2.57-3.94-4.89-.03-1.42,0-2.84,0-4.27,0-1.78.68-3.26,2-4.45.07-.06.14-.12.2-.19.01-.01,0-.03.02-.11-.39-.34-.81-.69-1.23-1.05-.73-.62-.84-1.44-.31-2.1.53-.65,1.37-.68,2.11-.09.23.18.45.37.72.59.1-.2.19-.35.26-.52.66-1.4,1.3-2.81,1.97-4.21.86-1.79,2.34-2.79,4.3-2.83,4.01-.07,8.02-.08,12.02,0,2.11.04,3.58,1.2,4.44,3.13.65,1.46,1.35,2.9,2.07,4.44ZM75.31,82.08c3.56,0,7.13,0,10.69,0,1.56,0,2.54-.98,2.55-2.51,0-1.27,0-2.55,0-3.82,0-1.99-1.26-3.25-3.26-3.25-6.65,0-13.3,0-19.95,0-1.99,0-3.24,1.27-3.25,3.27,0,1.2,0,2.4,0,3.6,0,1.8.93,2.72,2.74,2.72,3.49,0,6.98,0,10.47,0ZM85.36,69.63c-.06-.15-.08-.24-.12-.32-.72-1.54-1.43-3.08-2.16-4.61-.38-.8-1.04-1.23-1.94-1.23-3.86,0-7.72,0-11.58,0-.97,0-1.65.46-2.04,1.34-.49,1.09-.99,2.18-1.48,3.28-.22.5-.45.99-.7,1.55h20.02Z"/>
    <path class="cls-2" d="M60.22,48.63c-4.25,0-8.5,0-12.74,0-.95,0-1.57-.51-1.62-1.31-.05-.74.39-1.34,1.12-1.49.23-.05.48-.05.72-.05,8.37,0,16.73.01,25.1-.01,1.39,0,1.85.76,1.86,1.43.02.9-.68,1.43-1.85,1.43-4.19,0-8.39,0-12.58,0Z"/>
    <path class="cls-2" d="M52.86,56.61c1.84,0,3.69,0,5.53,0,.64,0,1.09.32,1.32.91.22.55.12,1.09-.32,1.47-.27.23-.68.41-1.03.42-3.69.03-7.38.03-11.07.01-.87,0-1.45-.6-1.44-1.42,0-.81.6-1.38,1.47-1.39,1.84-.01,3.69,0,5.53,0h0Z"/>
    <path class="cls-2" d="M49.68,70.25c-.76,0-1.51,0-2.27,0-.95-.01-1.56-.58-1.56-1.43,0-.82.6-1.41,1.51-1.42,1.57-.02,3.14-.02,4.71,0,.89.01,1.52.63,1.52,1.43,0,.8-.64,1.4-1.53,1.42-.79.01-1.59,0-2.38,0Z"/>
    <path class="cls-1" d="M75.31,82.08c-3.49,0-6.98,0-10.47,0-1.81,0-2.74-.92-2.74-2.72,0-1.2,0-2.4,0-3.6.01-2,1.27-3.27,3.25-3.27,6.65,0,13.3,0,19.95,0,2,0,3.25,1.27,3.26,3.25,0,1.27,0,2.55,0,3.82,0,1.53-.99,2.51-2.55,2.51-3.56,0-7.13,0-10.69,0ZM75.32,78.69c.72,0,1.44.01,2.15,0,.84-.02,1.42-.58,1.44-1.36.02-.82-.54-1.43-1.4-1.45-1.45-.02-2.91-.02-4.36,0-.85.01-1.46.66-1.43,1.44.03.77.63,1.35,1.45,1.37.72.01,1.44,0,2.15,0ZM67.12,79.35c1.16,0,2.07-.9,2.09-2.06.01-1.14-.92-2.08-2.07-2.07-1.16,0-2.08.91-2.09,2.06,0,1.15.92,2.07,2.07,2.08ZM83.52,79.35c1.16,0,2.07-.9,2.09-2.06.01-1.14-.92-2.08-2.07-2.07-1.16,0-2.08.91-2.09,2.06,0,1.15.92,2.07,2.07,2.08Z"/>
    <path class="cls-1" d="M85.36,69.63h-20.02c.25-.55.47-1.05.7-1.55.49-1.09.99-2.18,1.48-3.28.4-.88,1.07-1.34,2.04-1.34,3.86,0,7.72,0,11.58,0,.9,0,1.56.43,1.94,1.23.73,1.53,1.44,3.07,2.16,4.61.04.08.06.17.12.32Z"/>
    <path class="cls-4" d="M75.32,78.69c-.72,0-1.44.01-2.15,0-.82-.02-1.42-.6-1.45-1.37-.03-.78.58-1.42,1.43-1.44,1.45-.02,2.91-.02,4.36,0,.87.01,1.42.62,1.4,1.45-.02.78-.6,1.34-1.44,1.36-.72.01-1.44,0-2.15,0Z"/>
    <path class="cls-4" d="M67.12,79.35c-1.15,0-2.07-.93-2.07-2.08,0-1.15.92-2.06,2.09-2.06,1.15,0,2.08.93,2.07,2.07-.01,1.16-.93,2.06-2.09,2.06Z"/>
    <path class="cls-4" d="M83.52,79.35c-1.15,0-2.07-.93-2.07-2.08,0-1.15.92-2.06,2.09-2.06,1.15,0,2.08.93,2.07,2.07-.01,1.16-.93,2.06-2.09,2.06Z"/>
  </g>
  <g>
    <path class="cls-1" d="M148.35,77.67l-1.45-4.68-11.48-32.03c1.23.02,2.17.03,2.81.03l2.52-.03.84,2.9c.2.63.4,1.26.62,1.88l9.58,27.97,13.71-27.86c.3-.63.6-1.27.9-1.92.3-.65.73-1.64,1.3-2.97,1.29.02,2.22.03,2.8.03l2.66-.03c-1.68,3.05-3.83,7.15-6.45,12.32l-6.96,13.66c-2.02,3.94-3.77,7.52-5.24,10.73-1.27-.04-2.27-.05-3.01-.05s-1.78.02-3.14.05Z"/>
    <path class="cls-1" d="M196.61,73.39c-.22.99-.43,2.24-.65,3.77-1.72.43-3.21.72-4.48.87-1.26.15-2.52.23-3.78.23-2.24,0-4.25-.27-6.04-.81-1.78-.54-3.31-1.47-4.59-2.81-1.27-1.34-2.19-2.86-2.74-4.59-.56-1.72-.83-3.54-.83-5.46,0-2.67.51-5.15,1.53-7.44,1.02-2.29,2.56-4.08,4.61-5.39,2.05-1.31,4.66-1.96,7.81-1.96,1.63,0,3.19.24,4.68.71,1.49.48,2.73,1.2,3.71,2.17.99.97,1.75,2.17,2.29,3.59.54,1.43.81,2.98.81,4.67,0,.65-.05,1.27-.16,1.88h-20.52c-.07.99-.11,1.74-.11,2.26,0,1.88.39,3.62,1.18,5.2.79,1.59,1.95,2.79,3.5,3.6,1.54.82,3.32,1.22,5.33,1.22,2.31,0,5.13-.57,8.45-1.72ZM178.48,60.59h16.03c-.02-1.13-.09-2.01-.22-2.64-.13-.63-.36-1.28-.7-1.95-.34-.67-.8-1.25-1.39-1.75-.58-.49-1.28-.87-2.1-1.13-.82-.26-1.7-.39-2.65-.39-1.02,0-1.99.14-2.92.43-.92.29-1.74.68-2.45,1.18-.71.5-1.31,1.09-1.8,1.76-.49.67-.86,1.32-1.1,1.95-.24.63-.48,1.47-.71,2.53Z"/>
    <path class="cls-1" d="M203.68,77.67l.67-11.7.62-15.95.16-9.06,2.45.03c.61,0,1.41,0,2.4-.03l-.59,9.35-.21,5.58c.43-.77.8-1.38,1.12-1.84.31-.46.72-.91,1.21-1.37.49-.46,1.01-.85,1.55-1.17.54-.32,1.14-.6,1.8-.85.66-.24,1.46-.44,2.39-.6.93-.16,1.91-.24,2.93-.24,1.52,0,2.98.17,4.37.51,1.39.34,2.58.9,3.58,1.69,1,.79,1.68,1.73,2.04,2.82.37,1.09.55,2.2.55,3.33,0,.45,0,1.04-.03,1.77-.05,1.11-.12,2.41-.21,3.9l-.45,9.89c-.05,1.08-.09,2.39-.11,3.95-1.04-.04-1.84-.05-2.4-.05-.61,0-1.46.02-2.56.05.2-1.93.43-4.98.69-9.14.26-4.16.39-7.04.39-8.65,0-1.43-.26-2.62-.78-3.56-.52-.94-1.38-1.66-2.58-2.16-1.2-.5-2.54-.75-4.01-.75-1.35,0-2.6.21-3.77.62-1.06.38-1.96.9-2.7,1.59-.74.68-1.34,1.51-1.79,2.5-.48,1.06-.83,2.12-1.02,3.2-.31,1.7-.52,4.07-.65,7.09-.07,1.81-.17,4.9-.3,9.27-1.01-.04-1.76-.05-2.26-.05-.47,0-1.3.02-2.5.05Z"/>
    <path class="cls-1" d="M237.17,77.67l.47-6.78.52-11.57.22-8.9,2.48.03,2.42-.03c-.2,2.8-.38,5.72-.55,8.78-.16,3.06-.3,6.4-.4,10.02-.1,3.62-.15,6.44-.15,8.45-1.13-.04-1.94-.05-2.42-.05-.45,0-1.31.02-2.58.05ZM238.4,44.56c.05-1.69.08-2.96.08-3.82.99.04,1.86.05,2.61.05.95,0,1.81-.02,2.58-.05-.04.56-.09,1.83-.16,3.82-.97-.02-1.8-.03-2.5-.03s-1.57,0-2.61.03Z"/>
    <path class="cls-1" d="M257.5,77.67l.54-8.23.72-17.05.24-7.88c-4.39.02-8.23.1-11.53.24.11-1.43.17-2.7.19-3.79,4.55.02,9.47.03,14.74.03l8.61-.03h4.57c-.13,1.59-.19,2.85-.19,3.79-2.78-.16-5.85-.24-9.23-.24h-2.21l-.56,11.91-.56,16.77v4.49l-2.58-.05c-.23,0-1.15.02-2.75.05Z"/>
    <path class="cls-1" d="M278.08,77.67c.64-10.35.97-18.6.97-24.77l-.03-2.47c.91.02,1.67.03,2.26.03.68,0,1.44,0,2.29-.03l-.21,4.46c.66-1.11,1.25-1.95,1.76-2.51.51-.56,1.09-1.03,1.73-1.4.65-.37,1.38-.65,2.19-.86.82-.21,1.66-.31,2.54-.31.75,0,1.5.09,2.23.27.02,1.18.08,2.51.19,3.98-1.11-.3-2.11-.46-2.98-.46-1.06,0-2.01.17-2.85.52-.84.35-1.6.88-2.27,1.59-.67.71-1.22,1.56-1.65,2.54-.36.79-.63,1.81-.82,3.07-.19,1.26-.34,3.54-.44,6.86-.07,2.42-.11,4.99-.11,7.69v1.8c-.97-.04-1.75-.05-2.34-.05-.54,0-1.35.02-2.45.05Z"/>
    <path class="cls-1" d="M299.14,54.75c.16-.79.33-1.95.51-3.5,2.15-.56,4.02-.94,5.61-1.14,1.59-.21,3.13-.31,4.64-.31,1.61,0,3.12.15,4.53.44,1.41.3,2.58.78,3.51,1.44.93.66,1.55,1.43,1.86,2.29.3.86.46,1.78.46,2.77,0,1.24-.09,3.31-.28,6.23-.19,2.91-.33,5.61-.43,8.08-.1,2.47-.15,4.68-.15,6.62-.97-.04-1.76-.05-2.37-.05-.57,0-1.39.02-2.45.05l.57-7.34.41-8.69c-.63.48-1.1.82-1.41,1.02-.31.2-.67.38-1.06.55-.39.17-.83.33-1.31.48-.48.15-1.4.42-2.77.79-1.37.38-2.35.66-2.92.86-1.24.39-2.22.79-2.93,1.18-.72.39-1.32.82-1.8,1.29-.48.47-.83.93-1.02,1.4-.23.57-.35,1.17-.35,1.8,0,.97.29,1.81.86,2.53.57.72,1.3,1.21,2.17,1.49.87.28,1.91.42,3.13.42.75,0,1.54-.05,2.37-.16.82-.1,1.93-.38,3.31-.81-.25.69-.54,1.76-.86,3.2-1.31.25-2.38.41-3.2.47-.82.06-1.6.09-2.34.09-2.46,0-4.38-.29-5.76-.86-1.38-.57-2.41-1.45-3.09-2.62-.68-1.17-1.02-2.45-1.02-3.83,0-.81.12-1.55.36-2.23.24-.68.57-1.3.98-1.86.41-.56,1-1.11,1.76-1.67.76-.56,1.56-1.01,2.39-1.37.83-.36,1.81-.71,2.92-1.06,1.11-.35,2.9-.82,5.35-1.41.79-.18,1.46-.36,2.02-.55.56-.19,1.05-.37,1.48-.55.43-.18.81-.39,1.13-.63.32-.24.62-.54.89-.89.27-.35.47-.7.59-1.06.13-.36.19-.72.19-1.08,0-.88-.29-1.63-.86-2.26-.57-.63-1.32-1.07-2.25-1.32-.92-.25-2.01-.38-3.27-.38-1.17,0-2.36.09-3.59.28-1.23.19-2.29.41-3.17.67-.89.26-1.99.65-3.32,1.17Z"/>
    <path class="cls-1" d="M326.62,77.67l.3-3.9c.05-.82.12-2.12.21-3.9l.64-16.38c.02-1.34.03-2.37.03-3.07.84.02,1.61.03,2.31.03.75,0,1.5,0,2.23-.03l-.24,5c.61-1,1.16-1.8,1.65-2.39.49-.59,1.14-1.14,1.95-1.64.81-.5,1.73-.89,2.76-1.17,1.03-.28,2.1-.42,3.21-.42.77,0,1.53.09,2.29.27.75.18,1.45.43,2.08.75.64.32,1.18.69,1.64,1.1.46.41.82.86,1.1,1.34.28.48.56,1.18.85,2.1,1.09-2.06,2.46-3.51,4.1-4.33,1.64-.82,3.47-1.24,5.5-1.24,1.29,0,2.54.21,3.75.62,1.21.41,2.17,1,2.89,1.78.72.77,1.2,1.57,1.44,2.41.24.83.36,1.67.36,2.51s-.06,2.15-.19,3.87c-.12,1.72-.27,4.34-.43,7.87-.16,3.52-.25,6.46-.27,8.81-.95-.04-1.7-.05-2.24-.05-.57,0-1.43.02-2.56.05.2-2.42.37-5.06.51-7.91l.35-6.67c.09-1.61.13-3,.13-4.17,0-1.04-.11-1.86-.32-2.45-.22-.59-.56-1.11-1.04-1.58-.48-.47-1.06-.82-1.76-1.07s-1.5-.37-2.39-.37c-.72,0-1.38.08-1.99.24-.57.16-1.13.4-1.67.73-.59.34-1.12.76-1.59,1.27-.47.49-.86,1.03-1.18,1.65-.34.63-.62,1.38-.83,2.24-.27,1.08-.46,2.4-.56,3.96-.12,1.67-.22,3.86-.29,6.59l-.21,7.53c-1.04-.04-1.82-.05-2.34-.05-.48,0-1.3.02-2.45.05.18-2.22.32-4.51.43-6.86l.32-6.51c.09-2.01.13-3.72.13-5.14,0-.91-.09-1.69-.27-2.33-.18-.64-.52-1.22-1.01-1.75-.49-.53-1.09-.93-1.79-1.21-.7-.28-1.47-.42-2.31-.42-.9,0-1.75.16-2.55.47-.81.31-1.55.78-2.23,1.39-.68.61-1.25,1.36-1.72,2.25-.47.89-.83,2.05-1.09,3.5-.26,1.44-.47,3.96-.62,7.54-.15,3.59-.23,6.61-.23,9.06-1.15-.04-1.94-.05-2.37-.05-.47,0-1.28.02-2.45.05Z"/>
    <path class="cls-1" d="M374.07,77.67l.47-6.78.52-11.57.22-8.9,2.48.03,2.42-.03c-.2,2.8-.38,5.72-.55,8.78-.16,3.06-.3,6.4-.4,10.02-.1,3.62-.15,6.44-.15,8.45-1.13-.04-1.94-.05-2.42-.05-.45,0-1.31.02-2.58.05ZM375.31,44.56c.05-1.69.08-2.96.08-3.82.99.04,1.86.05,2.61.05.95,0,1.81-.02,2.58-.05-.04.56-.09,1.83-.16,3.82-.97-.02-1.8-.03-2.5-.03s-1.57,0-2.61.03Z"/>
    <path class="cls-1" d="M400.08,74.12c-.2.88-.41,2.04-.65,3.5-1.22.29-2.19.47-2.9.54-.72.07-1.4.11-2.04.11-1.6,0-2.88-.2-3.86-.61-.98-.4-1.73-1.05-2.25-1.94-.52-.89-.78-2.09-.78-3.62,0-.2,0-.55.03-1.05.02-.5.11-2.25.27-5.24l.66-12.05h-3.59c.07-.75.13-1.83.19-3.23h3.67c.09-1,.18-2.72.27-5.14,1.68-.32,3.1-.63,4.27-.91-.12,2.65-.19,4.67-.21,6.05h7.47c-.09,1.13-.14,2.21-.16,3.23h-7.45l-.72,15.14-.03,1.16c0,1.31.15,2.29.44,2.95.3.65.74,1.13,1.33,1.41.59.29,1.21.43,1.85.43.45,0,.93-.04,1.45-.11.52-.07,1.43-.28,2.74-.62Z"/>
    <path class="cls-1" d="M426.33,73.39c-.22.99-.43,2.24-.65,3.77-1.72.43-3.21.72-4.48.87-1.26.15-2.52.23-3.78.23-2.24,0-4.25-.27-6.04-.81-1.78-.54-3.31-1.47-4.59-2.81-1.27-1.34-2.19-2.86-2.74-4.59-.56-1.72-.83-3.54-.83-5.46,0-2.67.51-5.15,1.53-7.44,1.02-2.29,2.56-4.08,4.61-5.39,2.05-1.31,4.66-1.96,7.81-1.96,1.63,0,3.19.24,4.68.71,1.49.48,2.73,1.2,3.71,2.17.99.97,1.75,2.17,2.29,3.59.54,1.43.81,2.98.81,4.67,0,.65-.05,1.27-.16,1.88h-20.52c-.07.99-.11,1.74-.11,2.26,0,1.88.39,3.62,1.18,5.2.79,1.59,1.95,2.79,3.5,3.6,1.54.82,3.32,1.22,5.33,1.22,2.31,0,5.13-.57,8.45-1.72ZM408.2,60.59h16.03c-.02-1.13-.09-2.01-.22-2.64-.13-.63-.36-1.28-.7-1.95-.34-.67-.8-1.25-1.39-1.75-.58-.49-1.28-.87-2.1-1.13-.82-.26-1.7-.39-2.65-.39-1.02,0-1.99.14-2.92.43-.92.29-1.74.68-2.45,1.18-.71.5-1.31,1.09-1.8,1.76-.49.67-.86,1.32-1.1,1.95-.24.63-.48,1.47-.71,2.53Z"/>
    <path class="cls-1" d="M432.01,77.16l-.16-1.98c0-.22-.07-.9-.22-2.06,2.76,1.2,5.31,1.8,7.64,1.8,1.22,0,2.25-.16,3.09-.48.84-.32,1.47-.8,1.9-1.43.42-.63.63-1.29.63-1.97,0-.38-.06-.75-.17-1.13-.12-.38-.29-.74-.52-1.09-.23-.35-.58-.73-1.04-1.15-.46-.42-1.41-1.21-2.85-2.38-1.44-1.17-2.54-2.08-3.28-2.73-.74-.65-1.38-1.33-1.91-2.02-.53-.69-.92-1.39-1.17-2.08-.25-.7-.38-1.41-.38-2.12,0-1.15.36-2.26,1.09-3.34.73-1.08,1.78-1.88,3.15-2.41,1.37-.53,2.98-.79,4.83-.79,2.06,0,4.33.24,6.8.73.07,1.4.16,2.68.27,3.85-2.01-.82-3.99-1.24-5.94-1.24-1.06,0-2.04.14-2.95.42-.91.28-1.57.7-1.99,1.25-.42.56-.63,1.17-.63,1.83,0,.43.07.84.22,1.24.14.39.4.82.77,1.28.37.46.81.91,1.33,1.36.52.45,1.56,1.29,3.11,2.53,1.55,1.24,2.61,2.15,3.19,2.74.57.59,1.07,1.2,1.48,1.83.41.63.71,1.25.9,1.87.19.62.28,1.25.28,1.9,0,1.26-.37,2.42-1.12,3.5-.74,1.08-1.85,1.91-3.32,2.5-1.47.59-3.12.89-4.95.89-.77,0-1.68-.05-2.72-.15-1.04-.1-1.92-.22-2.65-.35-.73-.13-1.63-.34-2.7-.61Z"/>
  </g>
</svg>