<?xml version="1.0" encoding="UTF-8"?>
<svg id="Capa_1" xmlns="http://www.w3.org/2000/svg" viewBox="0 0 1080 1080">
  <defs>
    <style>
      .cls-1 {
        fill: #fff;
      }

      .cls-2 {
        fill: #ffdc7f;
      }

      .cls-3 {
        fill: #227b94;
      }

      .cls-4 {
        fill: #78b7d0;
      }
    </style>
  </defs>
  <circle class="cls-3" cx="540" cy="540" r="514.25"/>
  <g>
    <path class="cls-1" d="M306.49,526.19c0,53.69-.08,107.37.03,161.06.06,29.83,19.38,52.68,48.63,57.73,4.03.7,8.22.68,12.34.69,28.22.06,56.44,0,84.66.05,10.39.02,16.83,7.4,14.59,16.44-1.41,5.7-6,9.98-12.29,9.96-34.05-.1-68.2.95-102.14-1.16-36.01-2.24-67.76-35.48-71.52-71.34-.55-5.29-.85-10.64-.85-15.96-.05-105.99-.26-211.99.08-317.98.12-36.94,17.76-63.43,51.37-78.93,10.45-4.82,21.66-6.65,33.13-6.65,96.7-.03,193.41-.13,290.11.03,47.65.08,84.38,36.9,84.52,84.46.14,45.43.05,90.85.02,136.28,0,10.25-6.92,16.52-15.91,14.63-5.3-1.11-9.25-5.08-10.07-10.43-.36-2.37-.38-4.8-.38-7.2-.02-43.71-.03-87.41-.01-131.12.01-24.61-10.5-42.99-32.45-54.41-8.55-4.45-17.86-5.74-27.48-5.73-73.47.08-146.95.04-220.42.04-22.2,0-44.39-.04-66.59.01-34.86.08-59.34,24.59-59.37,59.51-.05,53.34-.01,106.68-.01,160.02Z"/>
    <path class="cls-1" d="M766.77,621.23c2.78-2.33,4.84-4.12,6.97-5.82,6.28-5.01,14.13-4.62,18.97.9,4.91,5.6,4.31,13.36-1.54,18.88-2,1.89-4.17,3.58-6.26,5.38-1.96,1.68-3.9,3.37-6.14,5.3.78.87,1.44,1.78,2.26,2.5,11.22,9.95,17.86,22.42,18.5,37.33.66,15.28,1.01,30.67-.09,45.9-1.83,25.41-19.66,42.19-46.89,45.16,0,2.93.06,5.96-.01,8.98-.19,8.31-5.71,14.22-13.22,14.22-7.24,0-12.77-5.67-13.22-13.72-.17-3.03-.03-6.07-.03-9.37h-152.05c0,3.25.09,6.45-.02,9.63-.25,7.68-5.64,13.28-12.85,13.46-7.08.18-12.84-5.33-13.33-12.95-.21-3.23-.03-6.49-.03-9.94-3.79-.65-7.17-1.04-10.45-1.82-20.95-4.97-36.31-23.9-36.72-45.56-.25-13.24-.08-26.49-.09-39.74,0-16.61,6.33-30.38,18.65-41.45.64-.57,1.26-1.16,1.87-1.77.1-.1.08-.32.21-1.02-3.68-3.14-7.58-6.44-11.45-9.77-6.76-5.81-7.86-13.44-2.84-19.52,4.97-6.03,12.78-6.38,19.69-.85,2.13,1.71,4.21,3.49,6.67,5.54.93-1.82,1.74-3.29,2.45-4.8,6.12-13.07,12.1-26.2,18.35-39.2,8.04-16.72,21.78-26.03,40.01-26.37,37.32-.69,74.67-.72,111.99,0,19.66.38,33.31,11.14,41.36,29.17,6.08,13.62,12.6,27.05,19.27,41.32ZM649.92,750.32c33.2,0,66.4.05,99.61-.02,14.56-.03,23.66-9.1,23.74-23.39.06-11.87.05-23.74.02-35.61-.05-18.51-11.73-30.28-30.35-30.3-61.93-.06-123.86-.06-185.79,0-18.49.02-30.17,11.86-30.29,30.45-.08,11.18-.04,22.36,0,33.55.04,16.75,8.68,25.32,25.54,25.32,32.51.01,65.03,0,97.54,0ZM743.59,634.4c-.51-1.42-.74-2.22-1.08-2.96-6.69-14.32-13.3-28.67-20.13-42.92-3.58-7.47-9.66-11.45-18.09-11.46-35.95-.02-71.91-.02-107.86-.02-9.05,0-15.33,4.26-19.03,12.45-4.6,10.17-9.21,20.34-13.81,30.51-2.09,4.62-4.18,9.25-6.5,14.4h186.51Z"/>
    <path class="cls-2" d="M509.44,438.79c-39.57,0-79.14.02-118.71-.01-8.87,0-14.61-4.72-15.11-12.17-.46-6.94,3.59-12.48,10.39-13.9,2.16-.45,4.44-.47,6.66-.48,77.94-.02,155.88.1,233.81-.14,12.96-.04,17.19,7.04,17.33,13.36.18,8.4-6.29,13.33-17.21,13.34-39.06,0-78.11,0-117.17,0Z"/>
    <path class="cls-2" d="M440.83,513.06c17.18,0,34.37-.04,51.55.02,5.95.02,10.16,2.96,12.32,8.46,2.02,5.14,1.11,10.19-3.01,13.66-2.54,2.14-6.37,3.86-9.63,3.88-34.37.28-68.74.24-103.11.13-8.07-.02-13.46-5.63-13.4-13.22.07-7.5,5.55-12.87,13.71-12.93,17.18-.12,34.37-.04,51.55-.04v.02Z"/>
    <path class="cls-2" d="M411.22,640.11c-7.05,0-14.1.07-21.15-.02-8.81-.11-14.52-5.42-14.5-13.31.02-7.65,5.61-13.1,14.1-13.19,14.61-.16,29.23-.17,43.84,0,8.33.1,14.18,5.85,14.12,13.3-.06,7.49-5.94,13.05-14.24,13.18-7.39.12-14.79.03-22.18.03Z"/>
    <path class="cls-3" d="M649.92,750.32c-32.51,0-65.03.01-97.54,0-16.87,0-25.51-8.57-25.54-25.32-.03-11.18-.07-22.36,0-33.55.13-18.59,11.8-30.43,30.29-30.45,61.93-.07,123.86-.06,185.79,0,18.62.02,30.3,11.78,30.35,30.3.03,11.87.04,23.74-.02,35.61-.07,14.29-9.18,23.36-23.74,23.39-33.2.08-66.4.02-99.61.03ZM650.08,718.78c6.69,0,13.38.11,20.07-.03,7.8-.16,13.23-5.39,13.42-12.66.19-7.65-5.02-13.33-13.07-13.47-13.55-.23-27.1-.22-40.65,0-7.9.13-13.55,6.12-13.31,13.39.24,7.19,5.82,12.58,13.48,12.74,6.69.14,13.38.03,20.07.04ZM573.64,724.93c10.76.04,19.3-8.39,19.43-19.18.12-10.62-8.57-19.34-19.27-19.32-10.82.02-19.39,8.47-19.43,19.17-.04,10.7,8.53,19.29,19.27,19.33ZM726.44,724.93c10.76.04,19.3-8.39,19.43-19.18.12-10.62-8.56-19.34-19.26-19.33-10.82.01-19.38,8.46-19.43,19.17-.05,10.68,8.53,19.3,19.26,19.33Z"/>
    <path class="cls-3" d="M743.59,634.4h-186.51c2.32-5.15,4.41-9.78,6.5-14.4,4.6-10.17,9.2-20.34,13.81-30.51,3.71-8.18,9.98-12.45,19.03-12.45,35.95,0,71.91,0,107.86.02,8.42,0,14.5,3.98,18.09,11.46,6.83,14.25,13.44,28.6,20.13,42.92.35.74.57,1.54,1.08,2.96Z"/>
    <path class="cls-4" d="M650.08,718.77c-6.69,0-13.38.11-20.07-.03-7.66-.16-13.24-5.55-13.48-12.74-.24-7.27,5.41-13.26,13.31-13.39,13.55-.22,27.1-.23,40.65,0,8.06.14,13.27,5.82,13.07,13.47-.18,7.27-5.62,12.51-13.42,12.66-6.69.13-13.38.03-20.07.02Z"/>
    <path class="cls-4" d="M573.64,724.93c-10.73-.04-19.3-8.64-19.27-19.33.04-10.7,8.6-19.16,19.43-19.17,10.7-.01,19.39,8.7,19.27,19.32-.12,10.79-8.66,19.22-19.43,19.18Z"/>
    <path class="cls-4" d="M726.44,724.93c-10.73-.04-19.31-8.65-19.26-19.33.05-10.71,8.61-19.15,19.43-19.17,10.7-.01,19.39,8.7,19.26,19.33-.13,10.79-8.67,19.21-19.43,19.18Z"/>
  </g>
</svg>