<?xml version="1.0" encoding="UTF-8"?>
<svg id="Capa_1" xmlns="http://www.w3.org/2000/svg" xmlns:xlink="http://www.w3.org/1999/xlink" viewBox="0 0 250 250">
  <defs>
    <style>
      .cls-1, .cls-2 {
        fill: none;
      }

      .cls-1, .cls-2, .cls-3 {
        stroke-miterlimit: 10;
      }

      .cls-1, .cls-3 {
        stroke: #ffdc7f;
        stroke-width: 4px;
      }

      .cls-2 {
        stroke: #227b94;
        stroke-width: 2px;
      }

      .cls-3 {
        fill: #fff;
        filter: url(#drop-shadow-2);
      }
    </style>
    <filter id="drop-shadow-2" x="4.12" y="4.14" width="256.32" height="255.84" filterUnits="userSpaceOnUse">
      <feOffset dx="7" dy="7"/>
      <feGaussianBlur result="blur" stdDeviation="5"/>
      <feFlood flood-color="#dbdbdb" flood-opacity=".75"/>
      <feComposite in2="blur" operator="in"/>
      <feComposite in="SourceGraphic"/>
    </filter>
    <clipPath id="clippath">
      <circle class="cls-1" cx="-321" cy="304" r="289.86"/>
    </clipPath>
  </defs>
  <g>
    <circle class="cls-3" cx="125" cy="125" r="110.72"/>
    <g>
      <path class="cls-2" d="M157.21,162.69c.11-.63.17-1.26.18-1.88l4.96-2.03-1.05-4.21-5.28.29c-.57-1.11-1.3-2.13-2.16-3.03l2.07-4.93-3.72-2.24-3.52,3.94c-.58-.19-1.17-.34-1.79-.44-.63-.11-1.26-.17-1.89-.18l-2.02-4.96-4.21,1.05.29,5.28c-1.11.57-2.13,1.3-3.03,2.16l-4.94-2.07-2.24,3.72,3.94,3.52c-.19.58-.34,1.17-.44,1.79-.11.63-.16,1.27-.18,1.89l-4.96,2.02,1.05,4.21,5.28-.29c.57,1.11,1.3,2.13,2.16,3.03l-2.07,4.94,3.72,2.24,3.52-3.94c.58.19,1.17.33,1.79.44.63.11,1.26.17,1.88.18l2.03,4.95,4.21-1.05-.29-5.28c1.11-.57,2.13-1.3,3.03-2.16l4.94,2.07,2.24-3.72-3.94-3.52c.19-.58.34-1.17.44-1.79ZM144,165.23c-2.57-.44-4.3-2.87-3.86-5.44.44-2.57,2.87-4.3,5.44-3.86,2.57.44,4.3,2.87,3.86,5.44-.44,2.57-2.87,4.3-5.44,3.86Z"/>
      <path class="cls-2" d="M96.64,91.79c-.07-.65-.19-1.28-.35-1.89l4.29-3.36-2.2-3.83-5.08,1.75c-.86-.93-1.86-1.73-2.96-2.37l.66-5.4-4.26-1.15-2.35,4.83c-.62-.02-1.24,0-1.87.07-.65.07-1.28.19-1.9.35l-3.36-4.29-3.83,2.2,1.75,5.08c-.93.86-1.73,1.86-2.37,2.96l-5.41-.66-1.15,4.26,4.83,2.35c-.02.62,0,1.24.07,1.87.07.65.19,1.28.35,1.9l-4.29,3.36,2.2,3.83,5.08-1.75c.86.93,1.86,1.73,2.96,2.37l-.66,5.41,4.26,1.15,2.35-4.83c.62.02,1.24,0,1.87-.07.65-.07,1.28-.19,1.89-.35l3.36,4.28,3.83-2.2-1.75-5.08c.93-.86,1.73-1.86,2.36-2.96l5.41.66,1.15-4.26-4.83-2.35c.02-.62,0-1.24-.07-1.87ZM84.42,97.95c-2.64.29-5.01-1.62-5.29-4.25-.29-2.63,1.62-5,4.25-5.29,2.63-.29,5,1.62,5.29,4.25.29,2.64-1.62,5.01-4.25,5.29Z"/>
      <path class="cls-2" d="M110.43,168.03l3.52-5.43-5.68-5.45c.31-.85.56-1.73.75-2.64.19-.94.31-1.87.36-2.8l7.49-2.76-1.34-6.33-7.88.16c-.79-1.68-1.82-3.25-3.06-4.63l3.34-7.25-5.43-3.53-5.45,5.68c-.85-.31-1.73-.56-2.64-.75-.94-.19-1.87-.31-2.8-.36l-2.76-7.49-6.33,1.34.16,7.88c-1.68.79-3.24,1.82-4.63,3.06l-7.25-3.34-3.52,5.42,5.68,5.45c-.31.85-.56,1.73-.75,2.64-.19.94-.31,1.87-.36,2.8l-7.49,2.76,1.34,6.33,7.88-.16c.79,1.68,1.82,3.25,3.06,4.63l-3.34,7.25,5.43,3.53,5.46-5.69c.85.31,1.73.56,2.64.75.94.19,1.87.31,2.8.36l2.76,7.49,6.33-1.34-.16-7.88c1.69-.79,3.25-1.82,4.63-3.06l7.25,3.34ZM88.54,160.77c-5.55-1.14-9.13-6.57-7.98-12.12,1.14-5.55,6.57-9.12,12.12-7.98,5.55,1.14,9.12,6.57,7.98,12.12-1.14,5.55-6.57,9.12-12.12,7.98Z"/>
      <g>
        <circle class="cls-2" cx="135.95" cy="101.05" r="27.41"/>
        <path class="cls-2" d="M159.45,115.18l22.08,18.74c1.72,1.46,1.92,4.05.44,5.76h0c-1.46,1.69-4,1.88-5.71.44l-22.02-18.67"/>
        <circle class="cls-2" cx="135.95" cy="101.05" r="19.29"/>
      </g>
    </g>
  </g>
  <circle class="cls-1" cx="-321" cy="304" r="289.86"/>
</svg>