<?xml version="1.0" encoding="UTF-8"?>
<svg id="Capa_1" xmlns="http://www.w3.org/2000/svg" xmlns:xlink="http://www.w3.org/1999/xlink" viewBox="0 0 250 250">
  <defs>
    <style>
      .cls-1 {
        fill: none;
        stroke: #227b94;
        stroke-width: 2px;
      }

      .cls-1, .cls-2 {
        stroke-miterlimit: 10;
      }

      .cls-2 {
        fill: #fff;
        filter: url(#drop-shadow-2);
        stroke: #ffdc7f;
        stroke-width: 4px;
      }
    </style>
    <filter id="drop-shadow-2" x="4.04" y="4.14" width="256.32" height="255.84" filterUnits="userSpaceOnUse">
      <feOffset dx="7" dy="7"/>
      <feGaussianBlur result="blur" stdDeviation="5"/>
      <feFlood flood-color="#dbdbdb" flood-opacity=".75"/>
      <feComposite in2="blur" operator="in"/>
      <feComposite in="SourceGraphic"/>
    </filter>
  </defs>
  <circle class="cls-2" cx="125" cy="125" r="110.72"/>
  <g>
    <line class="cls-1" x1="70.78" y1="115.76" x2="63.74" y2="111.51"/>
    <line class="cls-1" x1="70.76" y1="104.78" x2="63.77" y2="108.84"/>
    <path class="cls-1" d="M58.87,110.15c0-1.45,1.18-2.63,2.63-2.63s2.63,1.18,2.63,2.63-1.18,2.63-2.63,2.63-2.63-1.18-2.63-2.63Z"/>
    <circle class="cls-1" cx="73.02" cy="103.47" r="2.63"/>
    <path class="cls-1" d="M70.4,117.12c0-1.45,1.18-2.63,2.63-2.63s2.63,1.18,2.63,2.63-1.18,2.63-2.63,2.63-2.63-1.18-2.63-2.63Z"/>
    <path class="cls-1" d="M68.44,92.77c9.39,0,16.99,7.61,16.99,16.99,0,3.84-1.27,7.37-3.42,10.22l1.25,9.86-9.12-4.07c-1.78.64-3.7.99-5.71.99-9.39,0-16.99-7.61-16.99-16.99s7.61-16.99,16.99-16.99Z"/>
    <line class="cls-1" x1="181.8" y1="104.78" x2="174.81" y2="108.84"/>
    <line class="cls-1" x1="181.82" y1="115.76" x2="174.79" y2="111.51"/>
    <path class="cls-1" d="M169.92,110.15c0-1.45,1.18-2.63,2.63-2.63s2.63,1.18,2.63,2.63-1.18,2.63-2.63,2.63-2.63-1.18-2.63-2.63Z"/>
    <circle class="cls-1" cx="184.07" cy="103.47" r="2.63"/>
    <path class="cls-1" d="M181.44,117.12c0-1.45,1.18-2.63,2.63-2.63s2.63,1.18,2.63,2.63-1.18,2.63-2.63,2.63-2.63-1.18-2.63-2.63Z"/>
    <path class="cls-1" d="M195.76,105.06c2.71,8.99-2.38,18.47-11.37,21.18-3.67,1.11-7.43.91-10.77-.32l-9.08,4.04,1.26-9.91c-1.12-1.52-2.01-3.26-2.59-5.18-2.71-8.99,2.38-18.47,11.37-21.18,8.99-2.71,18.47,2.38,21.18,11.37Z"/>
    <line class="cls-1" x1="124.84" y1="106.41" x2="115.92" y2="101.02"/>
    <line class="cls-1" x1="124.81" y1="92.49" x2="115.95" y2="97.63"/>
    <path class="cls-1" d="M109.75,99.3c0-1.84,1.49-3.33,3.33-3.33s3.33,1.49,3.33,3.33-1.49,3.33-3.33,3.33-3.33-1.49-3.33-3.33Z"/>
    <path class="cls-1" d="M124.36,90.82c0-1.84,1.49-3.33,3.33-3.33s3.33,1.49,3.33,3.33-1.49,3.33-3.33,3.33-3.33-1.49-3.33-3.33Z"/>
    <path class="cls-1" d="M124.36,108.13c0-1.84,1.49-3.33,3.33-3.33s3.33,1.49,3.33,3.33-1.49,3.33-3.33,3.33-3.33-1.49-3.33-3.33Z"/>
    <path class="cls-1" d="M135.23,81.42c9.79,6.76,12.25,20.18,5.49,29.98-2.76,4-6.64,6.78-10.93,8.2l-5.8,11.19-6.59-10.81c-2.32-.62-4.58-1.64-6.66-3.08-9.79-6.76-12.25-20.18-5.49-29.98,6.76-9.79,20.18-12.25,29.98-5.49Z"/>
    <circle class="cls-1" cx="124.5" cy="146.74" r="7.96" transform="translate(-40.35 246.02) rotate(-80.74)"/>
    <path class="cls-1" d="M107.05,172.98c0-6.89,3.98-12.85,9.78-15.68,2.27,1.25,4.9,1.97,7.68,1.97s5.4-.71,7.68-1.97c5.79,2.85,9.77,8.8,9.77,15.68"/>
    <circle class="cls-1" cx="94.97" cy="139.44" r="7.96"/>
    <path class="cls-1" d="M77.51,165.69c0-6.9,3.97-12.86,9.78-15.69,2.27,1.26,4.9,1.97,7.68,1.97s5.4-.72,7.68-1.97c4.44,2.18,7.81,6.17,9.14,11.01"/>
    <circle class="cls-1" cx="154.08" cy="139.44" r="7.96"/>
    <path class="cls-1" d="M137.25,161.01c1.33-4.85,4.7-8.83,9.14-11.01,2.28,1.26,4.88,1.97,7.68,1.97s5.41-.72,7.68-1.97c5.81,2.83,9.78,8.79,9.78,15.69"/>
  </g>
</svg>