<?xml version="1.0" encoding="UTF-8"?>
<svg id="Capa_1" xmlns="http://www.w3.org/2000/svg" xmlns:xlink="http://www.w3.org/1999/xlink" viewBox="0 0 250 250">
  <defs>
    <style>
      .cls-1 {
        fill: none;
        stroke: #227b94;
        stroke-width: 2px;
      }

      .cls-1, .cls-2 {
        stroke-miterlimit: 10;
      }

      .cls-2 {
        fill: #fff;
        filter: url(#drop-shadow-2);
        stroke: #ffdc7f;
        stroke-width: 4px;
      }
    </style>
    <filter id="drop-shadow-2" x="4.2" y="4.14" width="255.84" height="255.84" filterUnits="userSpaceOnUse">
      <feOffset dx="7" dy="7"/>
      <feGaussianBlur result="blur" stdDeviation="5"/>
      <feFlood flood-color="#dbdbdb" flood-opacity=".75"/>
      <feComposite in2="blur" operator="in"/>
      <feComposite in="SourceGraphic"/>
    </filter>
  </defs>
  <circle class="cls-2" cx="125" cy="125" r="110.72"/>
  <g>
    <path class="cls-1" d="M139.2,150.78c9.29-4.86,15.63-14.59,15.63-25.8,0-16.06-13.02-29.09-29.09-29.09s-29.1,13.02-29.1,29.09c0,11.2,6.32,20.92,15.61,25.78"/>
    <rect class="cls-1" x="112.25" y="150.75" width="26.95" height="8.06"/>
    <rect class="cls-1" x="112.25" y="158.82" width="26.95" height="8.06"/>
    <path class="cls-1" d="M112.25,166.88h26.95v6.54c0,.84-.68,1.52-1.52,1.52h-23.91c-.84,0-1.52-.68-1.52-1.52v-6.54h0Z"/>
    <line class="cls-1" x1="125.74" y1="86.25" x2="125.74" y2="72"/>
    <line class="cls-1" x1="102.98" y1="93.65" x2="94.6" y2="82.13"/>
    <line class="cls-1" x1="88.9" y1="113.01" x2="75.36" y2="108.62"/>
    <line class="cls-1" x1="88.9" y1="136.95" x2="75.36" y2="141.35"/>
    <line class="cls-1" x1="176.12" y1="141.35" x2="162.59" y2="136.95"/>
    <line class="cls-1" x1="176.12" y1="108.62" x2="162.59" y2="113.01"/>
    <line class="cls-1" x1="156.88" y1="82.13" x2="148.51" y2="93.64"/>
    <path class="cls-1" d="M105.68,124.98c0-6.74,3.32-12.71,8.43-16.34"/>
    <line class="cls-1" x1="125.74" y1="134.52" x2="125.74" y2="150.75"/>
    <polyline class="cls-1" points="120.72 128 125.74 134.52 131.38 128"/>
    <path class="cls-1" d="M119.95,174.94c0,3.19,2.59,5.77,5.77,5.77s5.77-2.59,5.77-5.77"/>
  </g>
</svg>