<?xml version="1.0" encoding="UTF-8"?>
<svg id="Capa_1" xmlns="http://www.w3.org/2000/svg" xmlns:xlink="http://www.w3.org/1999/xlink" viewBox="0 0 250 250">
  <defs>
    <style>
      .cls-1, .cls-2 {
        fill: none;
      }

      .cls-1, .cls-2, .cls-3 {
        stroke-miterlimit: 10;
      }

      .cls-1, .cls-3 {
        stroke: #ffdc7f;
        stroke-width: 4px;
      }

      .cls-2 {
        stroke: #227b94;
        stroke-width: 2px;
      }

      .cls-3 {
        fill: #fff;
        filter: url(#drop-shadow-2);
      }
    </style>
    <filter id="drop-shadow-2" x="4.12" y="4.06" width="256.32" height="256.32" filterUnits="userSpaceOnUse">
      <feOffset dx="7" dy="7"/>
      <feGaussianBlur result="blur" stdDeviation="5"/>
      <feFlood flood-color="#dbdbdb" flood-opacity=".75"/>
      <feComposite in2="blur" operator="in"/>
      <feComposite in="SourceGraphic"/>
    </filter>
    <clipPath id="clippath">
      <circle class="cls-1" cx="-321" cy="38" r="289.86"/>
    </clipPath>
  </defs>
  <g>
    <circle class="cls-3" cx="125" cy="125" r="110.72"/>
    <g>
      <g>
        <circle class="cls-2" cx="76.65" cy="140.83" r="9.1"/>
        <path class="cls-2" d="M56.68,170.85c0-7.88,4.56-14.7,11.19-17.94,2.6,1.43,5.6,2.25,8.79,2.25s6.18-.82,8.79-2.25c6.62,3.26,11.17,10.06,11.17,17.94"/>
        <circle class="cls-2" cx="123.05" cy="140.83" r="9.1"/>
        <path class="cls-2" d="M103.08,170.85c0-7.88,4.56-14.7,11.19-17.94,2.6,1.43,5.6,2.25,8.79,2.25s6.18-.82,8.79-2.25c6.62,3.26,11.17,10.06,11.17,17.94"/>
        <circle class="cls-2" cx="169.59" cy="140.83" r="9.1"/>
        <path class="cls-2" d="M149.62,170.85c0-7.88,4.56-14.7,11.19-17.94,2.6,1.43,5.6,2.25,8.79,2.25s6.18-.82,8.79-2.25c6.62,3.26,11.17,10.06,11.17,17.94"/>
      </g>
      <g>
        <circle class="cls-2" cx="100.3" cy="89.45" r="9.1"/>
        <path class="cls-2" d="M80.33,119.47c0-7.88,4.56-14.7,11.19-17.94,2.6,1.43,5.6,2.25,8.79,2.25s6.18-.82,8.79-2.25c6.62,3.26,11.17,10.06,11.17,17.94"/>
        <circle class="cls-2" cx="146.71" cy="89.45" r="9.1"/>
        <path class="cls-2" d="M126.74,119.47c0-7.88,4.56-14.7,11.19-17.94,2.6,1.43,5.6,2.25,8.79,2.25s6.18-.82,8.79-2.25c6.62,3.26,11.17,10.06,11.17,17.94"/>
      </g>
    </g>
  </g>
  <circle class="cls-1" cx="-321" cy="38" r="289.86"/>
</svg>