<?xml version="1.0" encoding="UTF-8"?>
<svg id="Capa_1" xmlns="http://www.w3.org/2000/svg" xmlns:xlink="http://www.w3.org/1999/xlink" viewBox="0 0 250 250">
  <defs>
    <style>
      .cls-1 {
        fill: none;
        stroke: #227b94;
        stroke-width: 2px;
      }

      .cls-1, .cls-2 {
        stroke-miterlimit: 10;
      }

      .cls-2 {
        fill: #fff;
        filter: url(#drop-shadow-2);
        stroke: #ffdc7f;
        stroke-width: 4px;
      }
    </style>
    <filter id="drop-shadow-2" x="4.2" y="4.06" width="255.84" height="256.32" filterUnits="userSpaceOnUse">
      <feOffset dx="7" dy="7"/>
      <feGaussianBlur result="blur" stdDeviation="5"/>
      <feFlood flood-color="#dbdbdb" flood-opacity=".75"/>
      <feComposite in2="blur" operator="in"/>
      <feComposite in="SourceGraphic"/>
    </filter>
  </defs>
  <circle class="cls-2" cx="125" cy="125" r="110.72"/>
  <g>
    <circle class="cls-1" cx="125.91" cy="124" r="51.55"/>
    <polyline class="cls-1" points="74.37 124.02 100.19 124.02 125.89 124.02 151.03 124.02 177.46 124.02"/>
    <polyline class="cls-1" points="125.89 175.54 125.89 148.04 125.89 124.02 125.89 99.99 125.89 72.45"/>
    <path class="cls-1" d="M115.94,174.6c-3.3-5.15-7.89-13.39-11.24-23.85v-.04c-2.49-7.77-4.33-16.77-4.5-26.68-.13-8.37.9-17.42,3.82-26.9,2.27-7.55,5.71-15.4,10.68-23.42"/>
    <path class="cls-1" d="M135.2,174.68c3.39-5.23,8.02-13.6,11.41-24.24,2.45-7.72,4.25-16.65,4.42-26.43.13-8.28-.9-17.25-3.73-26.6-2.27-7.72-5.79-15.7-10.85-23.9"/>
    <path class="cls-1" d="M86.42,90.86h.04c5.02,2.32,10.9,4.59,17.55,6.26,6.61,1.72,13.99,2.83,21.88,2.87,6.78,0,13.94-.73,21.41-2.57,5.88-1.46,11.93-3.6,18.1-6.56"/>
    <path class="cls-1" d="M86.46,157.14c5.19-2.4,11.33-4.72,18.23-6.39v-.04c6.44-1.59,13.56-2.62,21.19-2.66,6.56-.04,13.51.64,20.72,2.4,6.05,1.42,12.31,3.6,18.75,6.74"/>
  </g>
</svg>