<?xml version="1.0" encoding="UTF-8"?>
<svg id="Capa_1" xmlns="http://www.w3.org/2000/svg" xmlns:xlink="http://www.w3.org/1999/xlink" viewBox="0 0 200 200">
  <defs>
    <style>
      .cls-1 {
        fill: #fff;
      }

      .cls-2 {
        fill: #ffdc7f;
      }

      .cls-3 {
        fill: none;
      }

      .cls-4 {
        clip-path: url(#clippath-1);
      }

      .cls-5 {
        clip-path: url(#clippath-2);
      }

      .cls-6 {
        clip-path: url(#clippath);
      }
    </style>
    <clipPath id="clippath">
      <rect class="cls-3" x="11.57" y="11.57" width="176.87" height="176.87"/>
    </clipPath>
    <clipPath id="clippath-1">
      <path class="cls-3" d="M100,11.57C51.16,11.57,11.57,51.16,11.57,100s39.59,88.43,88.43,88.43,88.43-39.59,88.43-88.43S148.84,11.57,100,11.57Z"/>
    </clipPath>
    <clipPath id="clippath-2">
      <rect class="cls-3" x="11.57" y="11.57" width="176.87" height="176.87"/>
    </clipPath>
  </defs>
  <g id="Ilustración_237">
    <g class="cls-6">
      <g class="cls-4">
        <rect class="cls-2" x="-20.8" y="-20.8" width="241.6" height="241.6" transform="translate(-36.6 63.4) rotate(-30)"/>
      </g>
      <g class="cls-5">
        <path class="cls-1" d="M141.92,81.78c-.21-4.49-.92-7.55-1.96-10.24-1.08-2.77-2.52-5.13-4.86-7.47-2.34-2.34-4.7-3.79-7.47-4.86-2.69-1.04-5.75-1.76-10.24-1.96-4.5-.21-5.93-.25-17.39-.25s-12.89.05-17.39.25c-4.49.2-7.55.92-10.24,1.96-2.77,1.08-5.13,2.52-7.47,4.86-2.34,2.34-3.79,4.7-4.86,7.47-1.04,2.68-1.76,5.75-1.96,10.24-.21,4.5-.25,5.94-.25,17.39s.05,12.89.25,17.39c.21,4.49.92,7.55,1.96,10.24,1.08,2.77,2.52,5.13,4.86,7.47,2.34,2.34,4.7,3.79,7.47,4.86,2.68,1.04,5.75,1.76,10.24,1.96,4.5.2,5.94.25,17.39.25s12.89-.05,17.39-.25c4.49-.21,7.55-.92,10.24-1.96,2.77-1.08,5.13-2.52,7.47-4.86,2.34-2.34,3.79-4.7,4.86-7.47,1.04-2.68,1.75-5.75,1.96-10.24.21-4.5.25-5.93.25-17.39s-.05-12.89-.25-17.39M134.33,116.21c-.19,4.11-.87,6.35-1.45,7.83-.76,1.97-1.68,3.37-3.15,4.85-1.48,1.48-2.88,2.39-4.85,3.15-1.49.58-3.72,1.27-7.83,1.45-4.45.2-5.78.25-17.04.25s-12.6-.04-17.04-.25c-4.11-.19-6.35-.87-7.83-1.45-1.97-.76-3.37-1.68-4.85-3.15-1.47-1.48-2.39-2.88-3.15-4.85-.58-1.49-1.26-3.72-1.45-7.83-.2-4.45-.25-5.78-.25-17.04s.04-12.6.25-17.04c.19-4.11.88-6.35,1.45-7.83.76-1.97,1.68-3.37,3.15-4.85,1.48-1.48,2.88-2.39,4.85-3.16,1.49-.58,3.72-1.26,7.83-1.45,4.45-.2,5.78-.25,17.04-.25l17.04.25c4.11.19,6.35.87,7.83,1.45,1.97.76,3.37,1.68,4.85,3.16,1.47,1.48,2.39,2.88,3.15,4.85.58,1.49,1.26,3.72,1.45,7.83.2,4.45.25,5.78.25,17.04s-.04,12.6-.25,17.04"/>
        <path class="cls-1" d="M100,77.51c-11.96,0-21.66,9.7-21.66,21.66s9.7,21.66,21.66,21.66,21.66-9.7,21.66-21.66-9.7-21.66-21.66-21.66M100,113.23c-7.76,0-14.06-6.29-14.06-14.06s6.29-14.06,14.06-14.06,14.06,6.29,14.06,14.06-6.29,14.06-14.06,14.06"/>
        <path class="cls-1" d="M122.51,71.6c-2.8,0-5.06,2.27-5.06,5.06s2.27,5.06,5.06,5.06,5.06-2.27,5.06-5.06-2.26-5.06-5.06-5.06"/>
      </g>
    </g>
  </g>
</svg>