<?xml version="1.0" encoding="UTF-8"?>
<svg id="Capa_1" xmlns="http://www.w3.org/2000/svg" xmlns:xlink="http://www.w3.org/1999/xlink" viewBox="0 0 200 200">
  <defs>
    <style>
      .cls-1 {
        fill: #fff;
      }

      .cls-2 {
        fill: #ffdc7f;
      }

      .cls-3 {
        fill: none;
      }

      .cls-4 {
        clip-path: url(#clippath-1);
      }

      .cls-5 {
        clip-path: url(#clippath);
      }
    </style>
    <clipPath id="clippath">
      <rect class="cls-3" x="11.57" y="11.57" width="176.87" height="176.87"/>
    </clipPath>
    <clipPath id="clippath-1">
      <rect class="cls-3" x="11.57" y="11.57" width="176.87" height="176.87"/>
    </clipPath>
  </defs>
  <g id="Ilustración_255">
    <g class="cls-5">
      <g class="cls-4">
        <path class="cls-2" d="M11.57,100c0,48.84,39.59,88.43,88.43,88.43s88.43-39.59,88.43-88.43S148.84,11.57,100,11.57,11.57,51.16,11.57,100"/>
        <path class="cls-1" d="M133.04,69.57c-.68-.35-1.35-.74-1.99-1.16-1.87-1.24-3.59-2.7-5.12-4.35-3.81-4.36-5.24-8.79-5.77-11.89h.02c-.44-2.57-.26-4.24-.23-4.24h-17.38v67.2c0,.9,0,1.79-.04,2.67,0,.11-.01.21-.02.33,0,.05,0,.1-.01.15v.04c-.37,4.9-3.15,9.29-7.42,11.71-2.19,1.25-4.67,1.9-7.19,1.9-8.1,0-14.66-6.6-14.66-14.76s6.56-14.76,14.66-14.76c1.53,0,3.06.24,4.51.71l.02-17.69c-8.94-1.16-17.96,1.48-24.87,7.28-2.99,2.6-5.51,5.71-7.44,9.18-.73,1.26-3.5,6.35-3.84,14.6-.21,4.68,1.19,9.53,1.87,11.54v.04c.42,1.18,2.05,5.21,4.72,8.6,2.15,2.72,4.68,5.12,7.53,7.1v-.04l.04.04c8.41,5.72,17.74,5.34,17.74,5.34,1.61-.06,7.02,0,13.17-2.91,6.81-3.23,10.69-8.04,10.69-8.04,2.48-2.87,4.45-6.15,5.82-9.68,1.57-4.13,2.1-9.09,2.1-11.07v-35.65c.21.13,3.02,1.98,3.02,1.98,0,0,4.05,2.59,10.36,4.28,4.53,1.2,10.63,1.45,10.63,1.45v-17.25c-2.14.23-6.48-.44-10.92-2.66"/>
      </g>
    </g>
  </g>
</svg>