<?xml version="1.0" encoding="UTF-8"?>
<svg id="Capa_1" xmlns="http://www.w3.org/2000/svg" xmlns:xlink="http://www.w3.org/1999/xlink" viewBox="0 0 200 200">
  <defs>
    <style>
      .cls-1 {
        fill: #fff;
      }

      .cls-2 {
        fill: #ffdc7f;
      }

      .cls-3 {
        fill: none;
      }

      .cls-4 {
        clip-path: url(#clippath-1);
      }

      .cls-5 {
        clip-path: url(#clippath);
      }
    </style>
    <clipPath id="clippath">
      <rect class="cls-3" x="11.57" y="11.57" width="176.87" height="176.87"/>
    </clipPath>
    <clipPath id="clippath-1">
      <rect class="cls-3" x="11.57" y="11.57" width="176.87" height="176.87"/>
    </clipPath>
  </defs>
  <g id="Ilustración_240">
    <g class="cls-5">
      <g class="cls-4">
        <path class="cls-2" d="M188.43,100c0-48.84-39.59-88.43-88.43-88.43S11.57,51.16,11.57,100s39.59,88.43,88.44,88.43,88.43-39.6,88.43-88.43"/>
        <rect class="cls-1" x="57.9" y="78.42" width="20.47" height="58.5"/>
        <path class="cls-1" d="M68.13,49.17c-6.41,0-11.43,5.89-9.99,12.53.84,3.86,3.98,6.96,7.85,7.73,6.6,1.32,12.37-3.67,12.37-10.03,0-5.64-4.58-10.24-10.24-10.24"/>
        <path class="cls-1" d="M145.65,96.39c-1.38-11.03-6.89-17.97-21.8-17.97-10.58,0-14.78,1.65-17.21,6.27v-6.27h-16.57v58.5h17.05v-30.63c0-7.64,1.45-13.42,10.9-13.42s10.07,7.11,10.07,13.92v30.13h17.56s.33-37.96,0-40.53"/>
      </g>
    </g>
  </g>
</svg>